<svg t="1634224782603" class="icon" viewBox="0 0 1024 1024" version="1.1" xmlns="http://www.w3.org/2000/svg" p-id="12824" width="200" height="200"><path d="M512 1024c-80.64-74.88-77.344-159.68-77.344-159.68h154.688S592.64 949.12 512 1024z m0-939.2C443.936 174.72 311.776 378.944 311.776 609.28c0 66.624 12.48 122.432 25.12 161.824h350.208c12.64-39.36 25.12-95.2 25.12-161.824 0-230.336-132.16-434.56-200.224-524.416z m253.856 524.448c0 151.712-58.144 251.84-58.144 251.84l-62.208-36.384H378.496l-62.208 36.384s-58.144-100.128-58.144-251.84C258.144 275.04 511.904 0.096 512 0c0.096 0.096 253.856 275.04 253.856 609.248z m35.136 99.616c0 58.144-25.824 121.376-43.616 148.064h123.264l-13.664-83.84-65.984-64.224zM157.024 773.12L143.36 856.96h123.264c-17.824-26.656-43.616-89.92-43.616-148.064L157.024 773.12z m306.624-242.016a11.936 11.936 0 1 0-2.016 23.808 11.936 11.936 0 0 0 2.016-23.808z m38.208 0a11.936 11.936 0 1 0-2.016 23.808 11.936 11.936 0 0 0 2.016-23.808z m38.176 0a11.936 11.936 0 1 0-2.016 23.808 11.936 11.936 0 0 0 2.016-23.808z m130.464 150.72a61.664 61.664 0 1 1-115.2-30.688l-15.392-21.024a94.688 94.688 0 0 1-99.616-14.72l-17.216 14.912a36.896 36.896 0 1 1-36.032-29.184c4.416 0 8.608 0.896 12.544 2.368l18.304-15.936a94.592 94.592 0 0 1 8.256-101.952l-19.232-20.928c-1.408 0.192-2.784 0.448-4.16 0.448a31.36 31.36 0 1 1 30.528-24.512l19.424 21.12a94.592 94.592 0 0 1 95.872-1.536l16.416-16.416a48.8 48.8 0 1 1 30.304 30.304l-15.072 15.04a94.624 94.624 0 0 1-5.888 115.392l14.048 19.136a61.76 61.76 0 0 1 20.512-3.584 61.76 61.76 0 0 1 61.6 61.76z m-168.64-63.968a74.848 74.848 0 1 0 3.552-149.632 74.848 74.848 0 0 0-3.552 149.632z" p-id="12825"></path></svg>
